# xmcd
#
# Track frame offsets: 
#        150
#        13552
#        26371
#        39900
#        51862
#        65521
#        78026
#        89811
#        103601
#        118078
#        133273
#        148546
#        160591
#        174562
#
# Disc length: 2512 seconds
#
# Revision: 0
# Processed by: cddbd v1.5.2PL0 Copyright (c) Steve Scherf et al.
# Submitted via: ExactAudioCopy v0.99pb5
#
DISCID=b209ce0e
DTITLE=Various Artist - The Blues Legends
DYEAR=1998
DGENRE=Blues
TTITLE0=Sonny Boy Williamson - Good Morning Little School Girl
TTITLE1=Bertha Idaho - Down on Pennsylvania Avenue
TTITLE2=Robert Johnson - Terraplane Blues
TTITLE3=Big Joe Williams - Baby Please Don't Go
TTITLE4=Cannon Jug Stompers - Ripley Blues
TTITLE5=Walter Davis - Sweet Sixteen
TTITLE6=Leadbelly - Fannin' Street
TTITLE7=Muddy Waters - I Be's Troubled
TTITLE8=Dr Clayton - Cheatin' and Lying Blues
TTITLE9=Bessie Smith - Careless Love Blues
TTITLE10=Muddy Waters - Country Blues
TTITLE11=Big Bill Broonzy - Midnight Steppers
TTITLE12=Leadbelly - Midnight Special
TTITLE13=Curley - No No Blues
EXTD=
EXTT0=
EXTT1=
EXTT2=
EXTT3=
EXTT4=
EXTT5=
EXTT6=
EXTT7=
EXTT8=
EXTT9=
EXTT10=
EXTT11=
EXTT12=
EXTT13=
PLAYORDER=
